<svg width="192" height="221" viewBox="0 0 192 221" fill="none" xmlns="http://www.w3.org/2000/svg">
<path d="M83.0729 2.82845L49.7083 32.6774L111.99 9.49512L83.0729 2.82845ZM47.4375 34.042L82.9323 2.29199L83.0573 2.32324L113.698 9.38574L112.932 9.6722L47.4375 34.042Z" fill="#F1F1F1"/>
<path d="M113.797 9.55225L157.286 26.6825L147.13 4.79704L113.797 9.55225ZM158.255 27.5887L157.682 27.3647L111.891 9.32829L147.422 4.25537L158.255 27.5887Z" fill="#F1F1F1"/>
<path d="M95.7236 206.219L120.375 218.532L145.656 202.745L95.7236 206.219ZM120.401 219.094L93.8955 205.854L147.588 202.12L120.401 219.094Z" fill="#F1F1F1"/>
<path d="M68.2292 195.74L81.1042 215.193L94.2917 206.094L68.2292 195.74ZM80.9688 215.88L80.8333 215.672L66.9531 194.703L95.3281 205.979L80.9688 215.88Z" fill="#F1F1F1"/>
<path d="M36.4063 178.797L48.3646 200.177L66.9323 195.146L36.4063 178.797ZM48.125 200.756L35.1562 177.573L68.2552 195.297L48.125 200.756Z" fill="#F1F1F1"/>
<path d="M17.6924 166.922L35.2966 177.604L22.0934 143.047L17.6924 166.922ZM36.2705 178.766L17.1455 167.167L21.9268 141.234L36.2705 178.766Z" fill="#F1F1F1"/>
<path d="M3.29167 122.443L21.6771 141.443L16.2865 98.0521L3.29167 122.443ZM22.3438 142.844L2.6875 122.526L2.77604 122.37L16.5833 96.4531L22.3438 142.844Z" fill="#F1F1F1"/>
<path d="M6.55762 74.0366L16.3232 96.3804L22.6201 55.7814L6.55762 74.0366ZM16.5472 98.1252L5.97949 73.9429L6.08366 73.8283L23.3649 54.1929L16.5472 98.1252Z" fill="#F1F1F1"/>
<path d="M30.7083 34.2555L23.5365 54.2035L47.8698 33.6305L30.7083 34.2555ZM22.4531 55.766L30.3594 33.7764L49.276 33.0889L22.4531 55.766Z" fill="#F1F1F1"/>
<path d="M113.119 9.81266L114.708 29.172L156.63 26.9481L113.119 9.81266ZM114.26 29.6877L112.567 9.06787L158.911 27.3179L114.26 29.6877Z" fill="#F1F1F1"/>
<path d="M49.1458 33.5732L69.9271 53.6982L113.411 29.7399L49.1458 33.5732ZM69.8438 54.3076L69.7188 54.1774L48 33.1462L48.5573 33.1149L115.557 29.1201L69.8438 54.3076Z" fill="#F1F1F1"/>
<path d="M23.2031 55.2293L16.776 96.6616L69.1719 54.2606L23.2031 55.2293ZM16.0938 97.8439L22.7813 54.745L70.599 53.7397L16.0938 97.8439Z" fill="#F1F1F1"/>
<path d="M16.7191 97.5627L22.1462 141.24L39.6982 102.344L16.7191 97.5627ZM21.8753 143.042L16.1514 96.9429L40.3962 101.99L40.2712 102.271L21.8753 143.042Z" fill="#F1F1F1"/>
<path d="M69.8701 54.4951L40.818 101.396L81.3649 75.8701L69.8701 54.4951ZM39.2764 102.943L69.9014 53.5107L82.0212 76.042L81.8232 76.1618L39.2764 102.943Z" fill="#F1F1F1"/>
<path d="M115.375 29.625L154.62 50.6667L157.49 27.3958L115.375 29.625ZM155.021 51.4375L154.703 51.2708L113.594 29.2292L158.052 26.875L158.016 27.1667L155.021 51.4375Z" fill="#F1F1F1"/>
<path d="M22.3955 142.453L35.833 177.62L53.4268 147.568L22.3955 142.453ZM35.7341 178.75L21.6299 141.828L22.0518 141.901L54.2132 147.198L54.0309 147.51L35.7341 178.75Z" fill="#F1F1F1"/>
<path d="M37.8698 178.354C37.8698 179.349 37.0625 180.156 36.0677 180.156C35.0729 180.156 34.2656 179.349 34.2656 178.354C34.2656 177.36 35.0729 176.552 36.0677 176.552C37.0625 176.552 37.8698 177.36 37.8698 178.354Z" fill="#F1F1F1"/>
<path d="M148.162 202.531C148.162 203.526 147.354 204.333 146.36 204.333C145.365 204.333 144.558 203.526 144.558 202.531C144.558 201.542 145.365 200.734 146.36 200.734C147.354 200.734 148.162 201.542 148.162 202.531Z" fill="#F1F1F1"/>
<path d="M41.526 102.172C41.526 103.167 40.7188 103.969 39.724 103.969C38.7292 103.969 37.9219 103.167 37.9219 102.172C37.9219 101.177 38.7292 100.37 39.724 100.37C40.7188 100.37 41.526 101.177 41.526 102.172Z" fill="#F1F1F1"/>
<path d="M50.8122 33.2918C50.8122 34.2866 50.0049 35.0939 49.0101 35.0939C48.0153 35.0939 47.208 34.2866 47.208 33.2918C47.208 32.297 48.0153 31.4897 49.0101 31.4897C50.0049 31.4897 50.8122 32.297 50.8122 33.2918Z" fill="#F1F1F1"/>
<path d="M159.584 27.3857C159.584 28.3805 158.776 29.1878 157.782 29.1878C156.787 29.1878 155.979 28.3805 155.979 27.3857C155.979 26.3962 156.787 25.5889 157.782 25.5889C158.776 25.5889 159.584 26.3962 159.584 27.3857Z" fill="#F1F1F1"/>
<path d="M115.245 9.39583C115.245 10.3906 114.438 11.1979 113.443 11.1979C112.443 11.1979 111.641 10.3906 111.641 9.39583C111.641 8.40104 112.443 7.59375 113.443 7.59375C114.438 7.59375 115.245 8.40104 115.245 9.39583Z" fill="#F1F1F1"/>
<path d="M17.8903 97.391C17.8903 98.3857 17.0882 99.193 16.0882 99.193C15.0934 99.193 14.2861 98.3857 14.2861 97.391C14.2861 96.3962 15.0934 95.5889 16.0882 95.5889C17.0882 95.5889 17.8903 96.3962 17.8903 97.391Z" fill="#F1F1F1"/>
<path d="M24.9274 54.9378C24.9274 55.9326 24.1201 56.7399 23.1253 56.7399C22.1305 56.7399 21.3232 55.9326 21.3232 54.9378C21.3232 53.943 22.1305 53.1357 23.1253 53.1357C24.1201 53.1357 24.9274 53.943 24.9274 54.9378Z" fill="#F1F1F1"/>
<path d="M55.8799 147.88C55.8799 148.875 55.0674 149.682 54.0726 149.682C53.0778 149.682 52.2705 148.875 52.2705 147.88C52.2705 146.885 53.0778 146.078 54.0726 146.078C55.0674 146.078 55.8799 146.885 55.8799 147.88Z" fill="#F1F1F1"/>
<path d="M23.5212 142.089C23.5212 143.083 22.7139 143.891 21.7191 143.891C20.7243 143.891 19.917 143.083 19.917 142.089C19.917 141.094 20.7243 140.287 21.7191 140.287C22.7139 140.287 23.5212 141.094 23.5212 142.089Z" fill="#F1F1F1"/>
<path d="M97.2393 205.344C97.2393 206.339 96.432 207.146 95.432 207.146C94.4372 207.146 93.6299 206.339 93.6299 205.344C93.6299 204.349 94.4372 203.542 95.432 203.542C96.432 203.542 97.2393 204.349 97.2393 205.344Z" fill="#F1F1F1"/>
<path d="M157.479 50.1615C157.479 51.6354 156.281 52.8333 154.802 52.8333C153.323 52.8333 152.125 51.6354 152.125 50.1615C152.125 48.6823 153.323 47.4844 154.802 47.4844C156.281 47.4844 157.479 48.6823 157.479 50.1615Z" fill="#F1F1F1"/>
<path d="M72.5107 54.0938C72.5107 55.5729 71.3076 56.7708 69.8337 56.7708C68.3545 56.7708 67.1514 55.5729 67.1514 54.0938C67.1514 52.6198 68.3545 51.4219 69.8337 51.4219C71.3076 51.4219 72.5107 52.6198 72.5107 54.0938Z" fill="#F1F1F1"/>
<path d="M116.401 29.917C116.401 31.3962 115.203 32.5941 113.724 32.5941C112.245 32.5941 111.047 31.3962 111.047 29.917C111.047 28.443 112.245 27.2451 113.724 27.2451C115.203 27.2451 116.401 28.443 116.401 29.917Z" fill="#F1F1F1"/>
<path d="M84.5934 2.85417L111.224 12.1354L145.276 4.70833L84.5934 2.85417ZM111.192 12.6458L111.125 12.6198L81.4111 2.26562L149.276 4.34375L111.192 12.6458Z" fill="#F1F1F1"/>
<path d="M153.349 14.1563L181.917 25.4583L147.99 5.23958L153.349 14.1563ZM184.568 27.0365L153.01 14.5521L146.562 3.8125L184.786 26.5938L184.568 27.0365Z" fill="#F1F1F1"/>
<path d="M82.3281 3.25033L32.2604 33.266L71.6927 22.0107L82.3281 3.25033ZM28.8125 34.7607L83.6771 1.87012L72.0208 22.4274L71.9219 22.4587L28.8125 34.7607Z" fill="#F1F1F1"/>
<path d="M30.2913 34.8962L7.37467 72.641L30.2913 51.5993V34.8962ZM5.16113 75.3389L30.7809 33.1357V51.818L30.7028 51.891L5.16113 75.3389Z" fill="#F1F1F1"/>
<path d="M6.45345 74.9066L3.4222 119.745L11.9118 85.8128L6.45345 74.9066ZM3.22949 122.542L2.74512 122.469L6.08366 73.0732L12.4326 85.7555L3.22949 122.542Z" fill="#F1F1F1"/>
<path d="M3.43229 123.047L17.224 165.651L18.4792 132.443L3.43229 123.047ZM17.6146 168.438L2.54688 121.917L18.9844 132.177L18.9792 132.323L17.6146 168.438Z" fill="#F1F1F1"/>
<path d="M18.375 167.714L47.5625 199.37L38.8698 176.406L18.375 167.714ZM48.9219 201.563L16.4688 166.375L39.2552 176.036L39.2917 176.135L48.9219 201.563Z" fill="#F1F1F1"/>
<path d="M139.5 199.407L121.265 218.261L169.687 201.922L139.5 199.407ZM119.505 219.37L139.312 198.901L139.427 198.912L172.093 201.631L119.505 219.37Z" fill="#F1F1F1"/>
<path d="M49.5313 200.787L80.2448 214.901L70.4167 202.016L49.5313 200.787ZM81.8281 216.172L46.9531 200.146L70.6719 201.537L70.7396 201.625L81.8281 216.172Z" fill="#F1F1F1"/>
<path d="M82.3698 215.401L119.313 218.479L103.302 209.25L82.3698 215.401ZM121.464 219.151L79.7031 215.672L103.365 208.719L103.458 208.771L121.464 219.151Z" fill="#F1F1F1"/>
<path d="M112.24 12.6823L145.198 31.0521L152.802 14.5833L112.24 12.6823ZM145.422 31.7396L110.172 12.0938L153.557 14.1302L145.422 31.7396Z" fill="#F1F1F1"/>
<path d="M73.3799 22.0941L105.151 24.5837L110.76 12.7555L73.3799 22.0941ZM105.453 25.0993L105.281 25.0837L70.333 22.3441L111.651 12.0264L105.453 25.0993Z" fill="#F1F1F1"/>
<path d="M71.6198 22.6927L31.4323 51.3698L72.0938 47.2292L71.6198 22.6927ZM29.6406 52.0469L72.0938 21.75L72.5938 47.6719L72.3698 47.6927L29.6406 52.0469Z" fill="#F1F1F1"/>
<path d="M30.5885 52.1356L12.875 84.995L41.974 64.771L30.5885 52.1356ZM11.4688 86.5731L30.4844 51.2866L42.7135 64.8595L11.4688 86.5731Z" fill="#F1F1F1"/>
<path d="M72.8021 47.4323L105.057 66.3542V25.3073L72.8021 47.4323ZM105.547 67.2083L105.177 66.9948L71.8906 47.4635L72.2083 47.25L105.547 24.375V67.2083Z" fill="#F1F1F1"/>
<path d="M105.547 25.1304V66.2345L144.761 31.5522L105.547 25.1304ZM105.058 67.3283V24.5522L145.86 31.2345L145.474 31.5783L105.058 67.3283Z" fill="#F1F1F1"/>
<path d="M145.646 31.2555L184.339 45.8337L153.256 14.7764L145.646 31.2555ZM186.297 47.0993L144.979 31.5316L145.089 31.292L153.104 13.9326L186.297 47.0993Z" fill="#F1F1F1"/>
<path d="M43.208 64.5941L104.349 66.5055L72.3434 47.7347L43.208 64.5941ZM106.26 67.0576L41.4736 65.0368L72.3486 47.167L72.4684 47.2399L106.26 67.0576Z" fill="#F1F1F1"/>
<path d="M12.5524 85.818L43.3962 116.631L42.1097 65.2764L12.5524 85.818ZM43.917 117.849L11.792 85.7503L42.5785 64.3545L42.5889 64.8076L43.917 117.849Z" fill="#F1F1F1"/>
<path d="M12.5156 86.4792L18.9219 131.911L43.2552 117.193L12.5156 86.4792ZM18.5417 132.714L11.8281 85.0938L44.0521 117.286L18.5417 132.714Z" fill="#F1F1F1"/>
<path d="M19.0472 132.411L38.891 175.26L43.3701 117.698L19.0472 132.411ZM39.2347 177.177L18.417 132.219L18.6045 132.104L43.9378 116.781L43.9014 117.26L39.2347 177.177Z" fill="#F1F1F1"/>
<path d="M39.6618 176.386L70.4951 201.417L92.9743 169.328L39.6618 176.386ZM70.5941 202.136L70.3857 201.969L38.4639 176.052L94.0212 168.693L93.6982 169.151L70.5941 202.136Z" fill="#F1F1F1"/>
<path d="M70.958 201.615L103.005 208.662L93.3903 169.594L70.958 201.615ZM103.672 209.307L70.1299 201.938L93.6091 168.427L103.672 209.307Z" fill="#F1F1F1"/>
<path d="M75.8333 46.9741C75.8333 48.8387 74.3229 50.3491 72.4583 50.3491C70.5938 50.3491 69.0781 48.8387 69.0781 46.9741C69.0781 45.1095 70.5938 43.5991 72.4583 43.5991C74.3229 43.5991 75.8333 45.1095 75.8333 46.9741Z" fill="#F1F1F1"/>
<path d="M74.7604 22.6097C74.7604 24.0889 73.5625 25.2816 72.0833 25.2816C70.6042 25.2816 69.4062 24.0889 69.4062 22.6097C69.4062 21.1305 70.6042 19.9326 72.0833 19.9326C73.5625 19.9326 74.7604 21.1305 74.7604 22.6097Z" fill="#F1F1F1"/>
<mask id="mask0_435_494" style="mask-type:luminance" maskUnits="userSpaceOnUse" x="180" y="41" width="8" height="9">
<path d="M180.396 41.875H188V49.875H180.396V41.875Z" fill="white"/>
</mask>
<g mask="url(#mask0_435_494)">
<path d="M188 45.8491C188 47.7137 186.49 49.2241 184.625 49.2241C182.76 49.2241 181.25 47.7137 181.25 45.8491C181.25 43.9845 182.76 42.4741 184.625 42.4741C186.49 42.4741 188 43.9845 188 45.8491Z" fill="#F1F1F1"/>
</g>
<path d="M45.4424 64.9635C45.4424 66.8281 43.932 68.3385 42.0674 68.3385C40.2028 68.3385 38.6924 66.8281 38.6924 64.9635C38.6924 63.1042 40.2028 61.5938 42.0674 61.5938C43.932 61.5938 45.4424 63.1042 45.4424 64.9635Z" fill="#F1F1F1"/>
<path d="M108.469 25.2344C108.469 27.0937 106.958 28.6042 105.094 28.6042C103.229 28.6042 101.719 27.0937 101.719 25.2344C101.719 23.3698 103.229 21.8594 105.094 21.8594C106.958 21.8594 108.469 23.3698 108.469 25.2344Z" fill="#F1F1F1"/>
<path d="M148.609 31.9795C148.609 33.8441 147.099 35.3545 145.234 35.3545C143.37 35.3545 141.859 33.8441 141.859 31.9795C141.859 30.1149 143.37 28.6045 145.234 28.6045C147.099 28.6045 148.609 30.1149 148.609 31.9795Z" fill="#F1F1F1"/>
<path d="M155.792 14.7344C155.792 16.2135 154.594 17.4115 153.115 17.4115C151.635 17.4115 150.438 16.2135 150.438 14.7344C150.438 13.2604 151.635 12.0625 153.115 12.0625C154.594 12.0625 155.792 13.2604 155.792 14.7344Z" fill="#F1F1F1"/>
<path d="M150.162 3.86475C150.162 5.34391 148.964 6.54183 147.485 6.54183C146.006 6.54183 144.808 5.34391 144.808 3.86475C144.808 2.39079 146.006 1.19287 147.485 1.19287C148.964 1.19287 150.162 2.39079 150.162 3.86475Z" fill="#F1F1F1"/>
<path d="M113.724 12.4896C113.724 13.9635 112.526 15.1615 111.047 15.1615C109.568 15.1615 108.37 13.9635 108.37 12.4896C108.37 11.0104 109.568 9.8125 111.047 9.8125C112.526 9.8125 113.724 11.0104 113.724 12.4896Z" fill="#F1F1F1"/>
<mask id="mask1_435_494" style="mask-type:luminance" maskUnits="userSpaceOnUse" x="79" y="0" width="7" height="6">
<path d="M79.0625 0H85.7292V5.875H79.0625V0Z" fill="white"/>
</mask>
<g mask="url(#mask1_435_494)">
<path d="M85.2656 2.74495C85.2656 4.21891 84.0625 5.41683 82.5833 5.41683C81.1042 5.41683 79.9062 4.21891 79.9062 2.74495C79.9062 1.26579 81.1042 0.0678711 82.5833 0.0678711C84.0625 0.0678711 85.2656 1.26579 85.2656 2.74495Z" fill="#F1F1F1"/>
</g>
<path d="M33.1149 34.6043C33.1149 36.0835 31.917 37.2762 30.443 37.2762C28.9639 37.2762 27.7607 36.0835 27.7607 34.6043C27.7607 33.1252 28.9639 31.9272 30.443 31.9272C31.917 31.9272 33.1149 33.1252 33.1149 34.6043Z" fill="#F1F1F1"/>
<path d="M33.8646 52.2188C33.8646 53.6979 32.6667 54.8958 31.1927 54.8958C29.7135 54.8958 28.5156 53.6979 28.5156 52.2188C28.5156 50.7448 29.7135 49.5469 31.1927 49.5469C32.6667 49.5469 33.8646 50.7448 33.8646 52.2188Z" fill="#F1F1F1"/>
<path d="M15.484 85.9583C15.484 87.4323 14.2861 88.6302 12.807 88.6302C11.3278 88.6302 10.1299 87.4323 10.1299 85.9583C10.1299 84.4792 11.3278 83.2812 12.807 83.2812C14.2861 83.2812 15.484 84.4792 15.484 85.9583Z" fill="#F1F1F1"/>
<path d="M20.3597 166.547C20.3597 168.026 19.1618 169.224 17.6826 169.224C16.2087 169.224 15.0107 168.026 15.0107 166.547C15.0107 165.073 16.2087 163.875 17.6826 163.875C19.1618 163.875 20.3597 165.073 20.3597 166.547Z" fill="#F1F1F1"/>
<path d="M49.9997 201.036C49.9997 202.51 48.8018 203.708 47.3226 203.708C45.8434 203.708 44.6455 202.51 44.6455 201.036C44.6455 199.557 45.8434 198.359 47.3226 198.359C48.8018 198.359 49.9997 199.557 49.9997 201.036Z" fill="#F1F1F1"/>
<path d="M83.3385 215.651C83.3385 217.131 82.1354 218.328 80.6563 218.328C79.1823 218.328 77.9844 217.131 77.9844 215.651C77.9844 214.177 79.1823 212.979 80.6563 212.979C82.1354 212.979 83.3385 214.177 83.3385 215.651Z" fill="#F1F1F1"/>
<mask id="mask2_435_494" style="mask-type:luminance" maskUnits="userSpaceOnUse" x="117" y="215" width="7" height="6">
<path d="M117.729 215.339H123.328V220.953H117.729V215.339Z" fill="white"/>
</mask>
<g mask="url(#mask2_435_494)">
<path d="M123.099 218.276C123.099 219.756 121.901 220.953 120.427 220.953C118.948 220.953 117.75 219.756 117.75 218.276C117.75 216.797 118.948 215.604 120.427 215.604C121.901 215.604 123.099 216.797 123.099 218.276Z" fill="#F1F1F1"/>
</g>
<path d="M174.87 201.406C174.87 202.885 173.672 204.083 172.198 204.083C170.719 204.083 169.516 202.885 169.516 201.406C169.516 199.932 170.719 198.734 172.198 198.734C173.672 198.734 174.87 199.932 174.87 201.406Z" fill="#F1F1F1"/>
<path d="M186.875 26.7347C186.875 28.2087 185.677 29.4066 184.198 29.4066C182.718 29.4066 181.521 28.2087 181.521 26.7347C181.521 25.2555 182.718 24.0576 184.198 24.0576C185.677 24.0576 186.875 25.2555 186.875 26.7347Z" fill="#F1F1F1"/>
<path d="M73.2552 200.661C73.2552 202.135 72.0573 203.333 70.5833 203.333C69.1042 203.333 67.9062 202.135 67.9062 200.661C67.9062 199.182 69.1042 197.984 70.5833 197.984C72.0573 197.984 73.2552 199.182 73.2552 200.661Z" fill="#F1F1F1"/>
<path d="M9.10905 73.9637C9.10905 75.4377 7.90592 76.6356 6.43197 76.6356C4.9528 76.6356 3.75488 75.4377 3.75488 73.9637C3.75488 72.4845 4.9528 71.2866 6.43197 71.2866C7.90592 71.2866 9.10905 72.4845 9.10905 73.9637Z" fill="#F1F1F1"/>
<mask id="mask3_435_494" style="mask-type:luminance" maskUnits="userSpaceOnUse" x="0" y="119" width="6" height="7">
<path d="M0 119.208H5.72917V125.875H0V119.208Z" fill="white"/>
</mask>
<g mask="url(#mask3_435_494)">
<path d="M5.35417 123.068C5.35417 124.542 4.15625 125.74 2.67708 125.74C1.20312 125.74 0 124.542 0 123.068C0 121.589 1.20312 120.391 2.67708 120.391C4.15625 120.391 5.35417 121.589 5.35417 123.068Z" fill="#F1F1F1"/>
</g>
<path d="M96.4691 168.797C96.4691 170.661 94.9535 172.172 93.0889 172.172C91.2243 172.172 89.7139 170.661 89.7139 168.797C89.7139 166.932 91.2243 165.422 93.0889 165.422C94.9535 165.422 96.4691 166.932 96.4691 168.797Z" fill="#F1F1F1"/>
<path d="M106.969 208.156C106.969 210.021 105.458 211.531 103.594 211.531C101.729 211.531 100.219 210.021 100.219 208.156C100.219 206.292 101.729 204.781 103.594 204.781C105.458 204.781 106.969 206.292 106.969 208.156Z" fill="#F1F1F1"/>
<path d="M143.36 198.412C143.36 200.271 141.849 201.787 139.985 201.787C138.12 201.787 136.604 200.271 136.604 198.412C136.604 196.547 138.12 195.037 139.985 195.037C141.849 195.037 143.36 196.547 143.36 198.412Z" fill="#F1F1F1"/>
<path d="M21.4378 131.688C21.4378 133.552 19.9222 135.063 18.0628 135.063C16.193 135.063 14.6826 133.552 14.6826 131.688C14.6826 129.828 16.193 128.312 18.0628 128.312C19.9222 128.312 21.4378 129.828 21.4378 131.688Z" fill="#F1F1F1"/>
<path d="M42.0674 175.917C42.0674 177.781 40.557 179.292 38.6924 179.292C36.8278 179.292 35.3174 177.781 35.3174 175.917C35.3174 174.057 36.8278 172.547 38.6924 172.547C40.557 172.547 42.0674 174.057 42.0674 175.917Z" fill="#F1F1F1"/>
<path d="M109.119 66.8387C109.119 69.4741 106.979 71.6095 104.343 71.6095C101.708 71.6095 99.5674 69.4741 99.5674 66.8387C99.5674 64.2033 101.708 62.0679 104.343 62.0679C106.979 62.0679 109.119 64.2033 109.119 66.8387Z" fill="#F1F1F1"/>
<path d="M47.9688 117.443C47.9688 120.078 45.8333 122.214 43.1927 122.214C40.5573 122.214 38.4219 120.078 38.4219 117.443C38.4219 114.807 40.5573 112.672 43.1927 112.672C45.8333 112.672 47.9688 114.807 47.9688 117.443Z" fill="#F1F1F1"/>
<mask id="mask4_435_494" style="mask-type:luminance" maskUnits="userSpaceOnUse" x="73" y="139" width="8" height="7">
<path d="M73.9111 139.38H80.9111V145.38H73.9111V139.38Z" fill="white"/>
</mask>
<g mask="url(#mask4_435_494)">
<path d="M73.9111 139.386L80.9111 142.381L73.9111 145.381V139.386Z" fill="white"/>
</g>
<mask id="mask5_435_494" style="mask-type:luminance" maskUnits="userSpaceOnUse" x="181" y="139" width="8" height="7">
<path d="M181.317 139.271H188.317V145.271H181.317V139.271Z" fill="white"/>
</mask>
<g mask="url(#mask5_435_494)">
<path d="M188.317 145.271L181.317 142.271L188.317 139.276V145.271Z" fill="white"/>
</g>
<path d="M78.6891 118.915V116.415C82.1058 117.623 85.8766 118.227 90.0016 118.227C96.8193 118.227 100.231 115.654 100.231 110.498C100.231 106.696 98.0068 104.79 93.5641 104.79H86.8766C80.8037 104.79 77.7725 102.055 77.7725 96.5814C77.7725 90.3626 82.2152 87.248 91.1058 87.248C94.7568 87.248 98.2933 87.7064 101.71 88.623V90.8939C98.2933 89.8262 94.7568 89.2897 91.1058 89.2897C83.8141 89.2897 80.1683 91.722 80.1683 96.5814C80.1683 100.54 82.4027 102.519 86.8766 102.519H93.5641C99.6058 102.519 102.627 105.18 102.627 110.498C102.627 117.029 98.4183 120.29 90.0016 120.29C85.8766 120.29 82.1058 119.831 78.6891 118.915Z" fill="#F1F1F1" fill-opacity="0.4"/>
<path d="M129.845 87.4775V89.5192H118.678V120.061H116.282V89.5192H105.345V87.4775H129.845Z" fill="#F1F1F1" fill-opacity="0.4"/>
<path d="M133.415 120.061H130.853L145.603 87.4775H148.457L163.269 120.061H160.415L155.582 109.123H140.978L141.686 107.082H154.686L146.873 89.3525L133.415 120.061Z" fill="#F1F1F1" fill-opacity="0.4"/>
<path d="M167.697 120.061V87.4775H181.135C187.036 87.4775 189.989 90.0817 189.989 95.29C189.989 99.8057 186.786 103.009 180.385 104.894L191.406 120.061H188.114L177.281 104.957V103.332C183.973 102.347 187.322 99.7275 187.322 95.4775C187.322 91.5609 185.135 89.6025 180.76 89.6025H170.093V120.061H167.697Z" fill="#F1F1F1" fill-opacity="0.4"/>
<path d="M76.6266 116.853V114.353C80.0433 115.561 83.8141 116.165 87.9391 116.165C94.7568 116.165 98.1683 113.592 98.1683 108.436C98.1683 104.634 95.9443 102.728 91.5016 102.728H84.8141C78.7412 102.728 75.71 99.9933 75.71 94.5194C75.71 88.3006 80.1527 85.186 89.0433 85.186C92.6943 85.186 96.2308 85.6444 99.6475 86.561V88.8319C96.2308 87.7642 92.6943 87.2277 89.0433 87.2277C81.7516 87.2277 78.1058 89.66 78.1058 94.5194C78.1058 98.4777 80.3402 100.457 84.8141 100.457H91.5016C97.5433 100.457 100.564 103.118 100.564 108.436C100.564 114.967 96.3558 118.228 87.9391 118.228C83.8141 118.228 80.0433 117.769 76.6266 116.853Z" fill="#F1F1F1"/>
<path d="M127.782 85.415V87.4567H116.616V117.998H114.22V87.4567H103.282V85.415H127.782Z" fill="#F1F1F1"/>
<path d="M131.353 117.998H128.79L143.54 85.415H146.394L161.207 117.998H158.353L153.519 107.061H138.915L139.623 105.019H152.623L144.811 87.29L131.353 117.998Z" fill="#F1F1F1"/>
<path d="M165.635 117.998V85.415H179.072C184.973 85.415 187.926 88.0192 187.926 93.2275C187.926 97.7432 184.723 100.946 178.322 102.832L189.343 117.998H186.051L175.218 102.894V101.269C181.911 100.285 185.26 97.665 185.26 93.415C185.26 89.4984 183.072 87.54 178.697 87.54H168.031V117.998H165.635Z" fill="#F1F1F1"/>
<path d="M102.051 135.257V147.757H109.364V149.216H100.26V135.257H102.051Z" fill="#F1F1F1" fill-opacity="0.4"/>
<path d="M101.168 134.373V146.873H108.48V148.331H99.376V134.373H101.168Z" fill="#F1F1F1"/>
<path d="M126.609 149.216H124.734L130.651 135.257H132.651L138.609 149.216H136.609L134.797 144.82H130.193L130.693 143.361H134.193L131.589 137.028L126.609 149.216Z" fill="#F1F1F1" fill-opacity="0.4"/>
<path d="M125.726 148.331H123.851L129.767 134.373H131.767L137.726 148.331H135.726L133.913 143.936H129.309L129.809 142.477H133.309L130.705 136.144L125.726 148.331Z" fill="#F1F1F1"/>
<path d="M155.166 149.216V135.257H161.124C163.775 135.257 165.104 136.341 165.104 138.507C165.104 140.091 164.234 141.226 162.499 141.903C164.343 142.252 165.27 143.315 165.27 145.091C165.27 147.841 163.817 149.216 160.916 149.216H155.166ZM160.812 147.757C162.479 147.757 163.312 146.914 163.312 145.216C163.312 143.565 162.192 142.736 159.958 142.736H159.166V141.549C161.843 141.205 163.187 140.247 163.187 138.674C163.187 137.372 162.442 136.716 160.958 136.716H156.958V147.757H160.812Z" fill="#F1F1F1" fill-opacity="0.4"/>
<path d="M154.282 148.331V134.373H160.241C162.892 134.373 164.22 135.456 164.22 137.623C164.22 139.206 163.35 140.342 161.616 141.019C163.459 141.368 164.386 142.43 164.386 144.206C164.386 146.956 162.933 148.331 160.032 148.331H154.282ZM159.928 146.873C161.595 146.873 162.428 146.029 162.428 144.331C162.428 142.68 161.308 141.852 159.074 141.852H158.282V140.665C160.959 140.321 162.303 139.363 162.303 137.79C162.303 136.488 161.558 135.831 160.074 135.831H156.074V146.873H159.928Z" fill="#F1F1F1"/>
</svg>
